{
  "accessors": [
    {
      "bufferView": 1,
      "componentType": 5126,
      "count": 2408,
      "max": [
        0.7043461799621582,
        0.22966891527175903,
        0.9999999403953552
      ],
      "min": [
        -2.636461019515991,
        -0.12335282564163208,
        -1.0000113248825073
      ],
      "type": "VEC3"
    },
    {
      "bufferView": 1,
      "byteOffset": 28896,
      "componentType": 5126,
      "count": 2408,
      "max": [
        1.0,
        0.9999999403953552,
        1.0
      ],
      "min": [
        -1.0,
        -0.9999995231628418,
        -1.0
      ],
      "type": "VEC3"
    },
    {
      "bufferView": 2,
      "componentType": 5126,
      "count": 2408,
      "max": [
        1.0,
        1.0,
        1.0,
        1.0
      ],
      "min": [
        0.24313725531101227,
        0.2549019753932953,
        0.21568627655506134,
        1.0
      ],
      "type": "VEC4"
    },
    {
      "bufferView": 1,
      "byteOffset": 57792,
      "componentType": 5126,
      "count": 2408,
      "max": [
        1.1920928955078125e-07,
        0.06097372621297836,
        1.1920928955078125e-07
      ],
      "min": [
        -2.384185791015625e-07,
        -0.06179787218570709,
        -1.1920928955078125e-07
      ],
      "type": "VEC3"
    },
    {
      "bufferView": 1,
      "byteOffset": 86688,
      "componentType": 5126,
      "count": 2408,
      "max": [
        0.42265933752059937,
        0.024008333683013916,
        0.0018554024863988161
      ],
      "min": [
        -0.42265892028808594,
        -0.024008333683013916,
        -0.0017649142537266016
      ],
      "type": "VEC3"
    },
    {
      "bufferView": 1,
      "byteOffset": 115584,
      "componentType": 5126,
      "count": 2408,
      "max": [
        2.384185791015625e-07,
        0.1199241429567337,
        2.384185791015625e-07
      ],
      "min": [
        -2.384185791015625e-07,
        -0.12052011489868164,
        -1.7881393432617188e-07
      ],
      "type": "VEC3"
    },
    {
      "bufferView": 1,
      "byteOffset": 144480,
      "componentType": 5126,
      "count": 2408,
      "max": [
        0.48810267448425293,
        0.0391923189163208,
        0.005504647269845009
      ],
      "min": [
        -0.4881025552749634,
        -0.0391923189163208,
        -0.005363811738789082
      ],
      "type": "VEC3"
    },
    {
      "bufferView": 1,
      "byteOffset": 173376,
      "componentType": 5126,
      "count": 2408,
      "max": [
        3.5762786865234375e-07,
        0.17354334890842438,
        2.980232238769531e-07
      ],
      "min": [
        -2.682209014892578e-07,
        -0.17359213531017303,
        -2.980232238769531e-07
      ],
      "type": "VEC3"
    },
    {
      "bufferView": 1,
      "byteOffset": 202272,
      "componentType": 5126,
      "count": 2408,
      "max": [
        0.5332657694816589,
        0.0459478497505188,
        0.01002604328095913
      ],
      "min": [
        -0.5332658886909485,
        -0.0459478497505188,
        -0.009772885590791702
      ],
      "type": "VEC3"
    },
    {
      "bufferView": 1,
      "byteOffset": 231168,
      "componentType": 5126,
      "count": 2408,
      "max": [
        3.5762786865234375e-07,
        0.21882569789886475,
        3.5762786865234375e-07
      ],
      "min": [
        -4.76837158203125e-07,
        -0.21836988627910614,
        -3.5762786865234375e-07
      ],
      "type": "VEC3"
    },
    {
      "bufferView": 1,
      "byteOffset": 260064,
      "componentType": 5126,
      "count": 2408,
      "max": [
        0.581684947013855,
        0.041517794132232666,
        0.01436515524983406
      ],
      "min": [
        -0.5816851258277893,
        -0.041517794132232666,
        -0.014004688709974289
      ],
      "type": "VEC3"
    },
    {
      "bufferView": 1,
      "byteOffset": 288960,
      "componentType": 5126,
      "count": 2408,
      "max": [
        3.5762786865234375e-07,
        0.2514815926551819,
        3.5762786865234375e-07
      ],
      "min": [
        -4.76837158203125e-07,
        -0.24076031148433685,
        -3.5762786865234375e-07
      ],
      "type": "VEC3"
    },
    {
      "bufferView": 1,
      "byteOffset": 317856,
      "componentType": 5126,
      "count": 2408,
      "max": [
        0.6015337705612183,
        0.030990183353424072,
        0.017446262761950493
      ],
      "min": [
        -0.6015334129333496,
        -0.030990183353424072,
        -0.017010293900966644
      ],
      "type": "VEC3"
    },
    {
      "bufferView": 1,
      "byteOffset": 346752,
      "componentType": 5126,
      "count": 2408,
      "max": [
        3.5762786865234375e-07,
        0.260888010263443,
        3.725290298461914e-07
      ],
      "min": [
        -3.5762786865234375e-07,
        -0.25552573800086975,
        -3.5762786865234375e-07
      ],
      "type": "VEC3"
    },
    {
      "bufferView": 1,
      "byteOffset": 375648,
      "componentType": 5126,
      "count": 2408,
      "max": [
        0.5990390181541443,
        0.023066997528076172,
        0.018487170338630676
      ],
      "min": [
        -0.5990388989448547,
        -0.023067116737365723,
        -0.018027160316705704
      ],
      "type": "VEC3"
    },
    {
      "bufferView": 1,
      "byteOffset": 404544,
      "componentType": 5126,
      "count": 2408,
      "max": [
        3.5762786865234375e-07,
        0.23900192975997925,
        3.5762786865234375e-07
      ],
      "min": [
        -3.5762786865234375e-07,
        -0.23851609230041504,
        -3.5762786865234375e-07
      ],
      "type": "VEC3"
    },
    {
      "bufferView": 1,
      "byteOffset": 433440,
      "componentType": 5126,
      "count": 2408,
      "max": [
        0.5957021117210388,
        0.03789627552032471,
        0.017295338213443756
      ],
      "min": [
        -0.5957021713256836,
        -0.0379597544670105,
        -0.016867026686668396
      ],
      "type": "VEC3"
    },
    {
      "bufferView": 1,
      "byteOffset": 462336,
      "componentType": 5126,
      "count": 2408,
      "max": [
        3.5762786865234375e-07,
        0.1982979029417038,
        2.980232238769531e-07
      ],
      "min": [
        -3.5762786865234375e-07,
        -0.19809867441654205,
        -2.980232238769531e-07
      ],
      "type": "VEC3"
    },
    {
      "bufferView": 1,
      "byteOffset": 491232,
      "componentType": 5126,
      "count": 2408,
      "max": [
        0.563227653503418,
        0.04642200469970703,
        0.014197847805917263
      ],
      "min": [
        -0.5632274150848389,
        -0.04642438888549805,
        -0.013847926631569862
      ],
      "type": "VEC3"
    },
    {
      "bufferView": 1,
      "byteOffset": 520128,
      "componentType": 5126,
      "count": 2408,
      "max": [
        2.384185791015625e-07,
        0.1491040289402008,
        2.384185791015625e-07
      ],
      "min": [
        -2.384185791015625e-07,
        -0.14859282970428467,
        -2.384185791015625e-07
      ],
      "type": "VEC3"
    },
    {
      "bufferView": 1,
      "byteOffset": 549024,
      "componentType": 5126,
      "count": 2408,
      "max": [
        0.5178501009941101,
        0.04597604274749756,
        0.009910458698868752
      ],
      "min": [
        -0.5178501605987549,
        -0.04597604274749756,
        -0.009667329490184784
      ],
      "type": "VEC3"
    },
    {
      "bufferView": 1,
      "byteOffset": 577920,
      "componentType": 5126,
      "count": 2408,
      "max": [
        2.384185791015625e-07,
        0.09278744459152222,
        1.7881393432617188e-07
      ],
      "min": [
        -2.384185791015625e-07,
        -0.09248829632997513,
        -1.7881393432617188e-07
      ],
      "type": "VEC3"
    },
    {
      "bufferView": 1,
      "byteOffset": 606816,
      "componentType": 5126,
      "count": 2408,
      "max": [
        0.4577043652534485,
        0.03502005338668823,
        0.005388862453401089
      ],
      "min": [
        -0.45770442485809326,
        -0.03502005338668823,
        -0.0052576554007828236
      ],
      "type": "VEC3"
    },
    {
      "bufferView": 1,
      "byteOffset": 635712,
      "componentType": 5126,
      "count": 2408,
      "max": [
        2.384185791015625e-07,
        0.03238961100578308,
        5.960464477539063e-08
      ],
      "min": [
        -1.1920928955078125e-07,
        -0.03239186853170395,
        -1.1920928955078125e-07
      ],
      "type": "VEC3"
    },
    {
      "bufferView": 1,
      "byteOffset": 664608,
      "componentType": 5126,
      "count": 2408,
      "max": [
        0.08459985256195068,
        0.012111425399780273,
        0.0015006233006715775
      ],
      "min": [
        -0.08459990471601486,
        -0.012111485004425049,
        -0.0014655012637376785
      ],
      "type": "VEC3"
    },
    {
      "bufferView": 1,
      "byteOffset": 693504,
      "componentType": 5126,
      "count": 2408,
      "max": [
        1.1920928955078125e-07,
        0.029752016067504883,
        1.1920928955078125e-07
      ],
      "min": [
        -2.384185791015625e-07,
        -0.029771968722343445,
        -5.960464477539063e-08
      ],
      "type": "VEC3"
    },
    {
      "bufferView": 1,
      "byteOffset": 722400,
      "componentType": 5126,
      "count": 2408,
      "max": [
        0.3723512887954712,
        0.022425949573516846,
        0.0009018484270200133
      ],
      "min": [
        -0.37235134840011597,
        -0.022425949573516846,
        -0.0008429789450019598
      ],
      "type": "VEC3"
    },
    {
      "bufferView": 1,
      "byteOffset": 751296,
      "componentType": 5126,
      "count": 2408,
      "max": [
        2.384185791015625e-07,
        0.09014735370874405,
        1.7881393432617188e-07
      ],
      "min": [
        -2.384185791015625e-07,
        -0.09022602438926697,
        -1.7881393432617188e-07
      ],
      "type": "VEC3"
    },
    {
      "bufferView": 1,
      "byteOffset": 780192,
      "componentType": 5126,
      "count": 2408,
      "max": [
        0.4547119438648224,
        0.03209012746810913,
        0.003380950540304184
      ],
      "min": [
        -0.45471155643463135,
        -0.031936705112457275,
        -0.0032931030727922916
      ],
      "type": "VEC3"
    },
    {
      "bufferView": 1,
      "byteOffset": 809088,
      "componentType": 5126,
      "count": 2408,
      "max": [
        2.384185791015625e-07,
        0.1466546207666397,
        2.384185791015625e-07
      ],
      "min": [
        -2.384185791015625e-07,
        -0.1469011753797531,
        -2.384185791015625e-07
      ],
      "type": "VEC3"
    },
    {
      "bufferView": 1,
      "byteOffset": 837984,
      "componentType": 5126,
      "count": 2408,
      "max": [
        0.5139176845550537,
        0.04480278491973877,
        0.0076299975626170635
      ],
      "min": [
        -0.5139181017875671,
        -0.044802963733673096,
        -0.007436307612806559
      ],
      "type": "VEC3"
    },
    {
      "bufferView": 1,
      "byteOffset": 866880,
      "componentType": 5126,
      "count": 2408,
      "max": [
        3.5762786865234375e-07,
        0.19631828367710114,
        2.980232238769531e-07
      ],
      "min": [
        -4.76837158203125e-07,
        -0.19604331254959106,
        -2.980232238769531e-07
      ],
      "type": "VEC3"
    },
    {
      "bufferView": 1,
      "byteOffset": 895776,
      "componentType": 5126,
      "count": 2408,
      "max": [
        0.5671433210372925,
        0.045748770236968994,
        0.012195037677884102
      ],
      "min": [
        -0.5676382780075073,
        -0.045748770236968994,
        -0.011888129636645317
      ],
      "type": "VEC3"
    },
    {
      "bufferView": 1,
      "byteOffset": 924672,
      "componentType": 5126,
      "count": 2408,
      "max": [
        3.5762786865234375e-07,
        0.23695409297943115,
        3.5762786865234375e-07
      ],
      "min": [
        -4.76837158203125e-07,
        -0.23280061781406403,
        -3.5762786865234375e-07
      ],
      "type": "VEC3"
    },
    {
      "bufferView": 1,
      "byteOffset": 953568,
      "componentType": 5126,
      "count": 2408,
      "max": [
        0.5952109098434448,
        0.03753459453582764,
        0.016059499233961105
      ],
      "min": [
        -0.5952109098434448,
        -0.03753471374511719,
        -0.01565735414624214
      ],
      "type": "VEC3"
    },
    {
      "bufferView": 1,
      "byteOffset": 982464,
      "componentType": 5126,
      "count": 2408,
      "max": [
        3.5762786865234375e-07,
        0.2585289776325226,
        3.5762786865234375e-07
      ],
      "min": [
        -3.5762786865234375e-07,
        -0.2517440617084503,
        -3.5762786865234375e-07
      ],
      "type": "VEC3"
    },
    {
      "bufferView": 1,
      "byteOffset": 1011360,
      "componentType": 5126,
      "count": 2408,
      "max": [
        0.5985263586044312,
        0.023728251457214355,
        0.018225619569420815
      ],
      "min": [
        -0.5985268354415894,
        -0.02372819185256958,
        -0.01777109131217003
      ],
      "type": "VEC3"
    },
    {
      "bufferView": 1,
      "byteOffset": 1040256,
      "componentType": 5126,
      "count": 2408,
      "max": [
        3.5762786865234375e-07,
        0.2491578906774521,
        3.5762786865234375e-07
      ],
      "min": [
        -3.5762786865234375e-07,
        -0.25124573707580566,
        -3.5762786865234375e-07
      ],
      "type": "VEC3"
    },
    {
      "bufferView": 1,
      "byteOffset": 1069152,
      "componentType": 5126,
      "count": 2408,
      "max": [
        0.6003433465957642,
        0.03028768301010132,
        0.018184686079621315
      ],
      "min": [
        -0.6003433465957642,
        -0.030287504196166992,
        -0.017733197659254074
      ],
      "type": "VEC3"
    },
    {
      "bufferView": 1,
      "byteOffset": 1098048,
      "componentType": 5126,
      "count": 2408,
      "max": [
        3.5762786865234375e-07,
        0.22010226547718048,
        3.5762786865234375e-07
      ],
      "min": [
        -3.5762786865234375e-07,
        -0.22025032341480255,
        -3.5762786865234375e-07
      ],
      "type": "VEC3"
    },
    {
      "bufferView": 1,
      "byteOffset": 1126944,
      "componentType": 5126,
      "count": 2408,
      "max": [
        0.5804897546768188,
        0.04224193096160889,
        0.016012554988265038
      ],
      "min": [
        -0.5804900527000427,
        -0.042299091815948486,
        -0.015616919845342636
      ],
      "type": "VEC3"
    },
    {
      "bufferView": 1,
      "byteOffset": 1155840,
      "componentType": 5126,
      "count": 2408,
      "max": [
        3.5762786865234375e-07,
        0.1752200871706009,
        2.980232238769531e-07
      ],
      "min": [
        -2.384185791015625e-07,
        -0.17550764977931976,
        -2.980232238769531e-07
      ],
      "type": "VEC3"
    },
    {
      "bufferView": 1,
      "byteOffset": 1184736,
      "componentType": 5126,
      "count": 2408,
      "max": [
        0.5455243587493896,
        0.04628455638885498,
        0.012235399335622787
      ],
      "min": [
        -0.5455241203308105,
        -0.046284615993499756,
        -0.011934461072087288
      ],
      "type": "VEC3"
    },
    {
      "bufferView": 1,
      "byteOffset": 1213632,
      "componentType": 5126,
      "count": 2408,
      "max": [
        2.384185791015625e-07,
        0.12286227196455002,
        1.7881393432617188e-07
      ],
      "min": [
        -2.384185791015625e-07,
        -0.12053564190864563,
        -1.7881393432617188e-07
      ],
      "type": "VEC3"
    },
    {
      "bufferView": 1,
      "byteOffset": 1242528,
      "componentType": 5126,
      "count": 2408,
      "max": [
        0.48987433314323425,
        0.03918987512588501,
        0.007712181657552719
      ],
      "min": [
        -0.4898742735385895,
        -0.03918987512588501,
        -0.0075234947726130486
      ],
      "type": "VEC3"
    },
    {
      "bufferView": 1,
      "byteOffset": 1271424,
      "componentType": 5126,
      "count": 2408,
      "max": [
        2.384185791015625e-07,
        0.06433122605085373,
        1.1920928955078125e-07
      ],
      "min": [
        -1.1920928955078125e-07,
        -0.06434086710214615,
        -1.1920928955078125e-07
      ],
      "type": "VEC3"
    },
    {
      "bufferView": 1,
      "byteOffset": 1300320,
      "componentType": 5126,
      "count": 2408,
      "max": [
        0.42528611421585083,
        0.026311099529266357,
        0.0034071230329573154
      ],
      "min": [
        -0.4252864122390747,
        -0.026311039924621582,
        -0.0033248919062316418
      ],
      "type": "VEC3"
    },
    {
      "bufferView": 0,
      "componentType": 5125,
      "count": 5556,
      "type": "SCALAR"
    },
    {
      "bufferView": 3,
      "componentType": 5126,
      "count": 23,
      "max": [
        0.9583333134651184
      ],
      "min": [
        0.0416666679084301
      ],
      "type": "SCALAR"
    },
    {
      "bufferView": 3,
      "byteOffset": 92,
      "componentType": 5126,
      "count": 506,
      "max": [
        1.0
      ],
      "min": [
        0.0
      ],
      "type": "SCALAR"
    }
  ],
  "animations": [
    {
      "channels": [
        {
          "sampler": 0,
          "target": {
            "node": 5,
            "path": "weights"
          }
        }
      ],
      "name": "anim",
      "samplers": [
        {
          "input": 48,
          "interpolation": "LINEAR",
          "output": 49
        }
      ]
    }
  ],
  "asset": {
    "extras": {
      "author": "Spooky Iluha (https://sketchfab.com/spookyiluha)",
      "license": "CC-BY-SA-4.0 (http://creativecommons.org/licenses/by-sa/4.0/)",
      "source": "https://sketchfab.com/3d-models/windows-plane-screensaver-model-90c719791aaa43b7925e4b60f3d2db9f",
      "title": "Windows Plane Screensaver Model"
    },
    "generator": "Sketchfab-12.67.0",
    "version": "2.0"
  },
  "bufferViews": [
    {
      "buffer": 0,
      "byteLength": 22224,
      "name": "floatBufferViews",
      "target": 34963
    },
    {
      "buffer": 0,
      "byteLength": 1329216,
      "byteOffset": 22224,
      "byteStride": 12,
      "name": "floatBufferViews",
      "target": 34962
    },
    {
      "buffer": 0,
      "byteLength": 38528,
      "byteOffset": 1351440,
      "byteStride": 16,
      "name": "floatBufferViews",
      "target": 34962
    },
    {
      "buffer": 0,
      "byteLength": 2116,
      "byteOffset": 1389968,
      "name": "floatBufferViews"
    }
  ],
  "buffers": [
    {
      "byteLength": 1392084,
      "uri": "scene.bin"
    }
  ],
  "materials": [
    {
      "name": "WindowsPlane",
      "pbrMetallicRoughness": {
        "baseColorFactor": [
          0.8,
          0.8,
          0.8,
          1.0
        ],
        "metallicFactor": 0.0,
        "roughnessFactor": 0.0
      }
    }
  ],
  "meshes": [
    {
      "name": "WindowsPlane",
      "primitives": [
        {
          "attributes": {
            "COLOR_0": 2,
            "NORMAL": 1,
            "POSITION": 0
          },
          "indices": 47,
          "material": 0,
          "mode": 4,
          "targets": [
            {
              "NORMAL": 4,
              "POSITION": 3
            },
            {
              "NORMAL": 6,
              "POSITION": 5
            },
            {
              "NORMAL": 8,
              "POSITION": 7
            },
            {
              "NORMAL": 10,
              "POSITION": 9
            },
            {
              "NORMAL": 12,
              "POSITION": 11
            },
            {
              "NORMAL": 14,
              "POSITION": 13
            },
            {
              "NORMAL": 16,
              "POSITION": 15
            },
            {
              "NORMAL": 18,
              "POSITION": 17
            },
            {
              "NORMAL": 20,
              "POSITION": 19
            },
            {
              "NORMAL": 22,
              "POSITION": 21
            },
            {
              "NORMAL": 24,
              "POSITION": 23
            },
            {
              "NORMAL": 26,
              "POSITION": 25
            },
            {
              "NORMAL": 28,
              "POSITION": 27
            },
            {
              "NORMAL": 30,
              "POSITION": 29
            },
            {
              "NORMAL": 32,
              "POSITION": 31
            },
            {
              "NORMAL": 34,
              "POSITION": 33
            },
            {
              "NORMAL": 36,
              "POSITION": 35
            },
            {
              "NORMAL": 38,
              "POSITION": 37
            },
            {
              "NORMAL": 40,
              "POSITION": 39
            },
            {
              "NORMAL": 42,
              "POSITION": 41
            },
            {
              "NORMAL": 44,
              "POSITION": 43
            },
            {
              "NORMAL": 46,
              "POSITION": 45
            }
          ]
        }
      ],
      "weights": [
        0.0,
        0.0,
        0.0,
        0.0,
        0.0,
        0.0,
        0.0,
        0.0,
        0.0,
        0.0,
        0.0,
        0.0,
        0.0,
        0.0,
        0.0,
        0.0,
        0.0,
        0.0,
        0.0,
        0.0,
        0.0,
        0.0
      ]
    }
  ],
  "nodes": [
    {
      "children": [
        1
      ],
      "matrix": [
        1.0,
        0.0,
        0.0,
        0.0,
        0.0,
        0.005701478570699914,
        -0.9999837279319763,
        0.0,
        0.0,
        0.9999837279319763,
        0.005701478570699914,
        0.0,
        9.715557098388672e-06,
        -0.018280290067195892,
        -0.0004073060699738603,
        1.0
      ],
      "name": "Sketchfab_model"
    },
    {
      "children": [
        2
      ],
      "name": "b81f009266604a9d8b0e54a7f0fcdfdc.abc.cleaner.materialmerger.gles"
    },
    {
      "children": [
        3
      ],
      "matrix": [
        1.0,
        0.0,
        0.0,
        0.0,
        0.0,
        2.220446049250313e-16,
        1.0,
        0.0,
        0.0,
        -1.0,
        2.220446049250313e-16,
        0.0,
        0.0,
        0.0,
        0.0,
        1.0
      ],
      "name": "Object_2"
    },
    {
      "children": [
        4
      ],
      "name": "Object_3"
    },
    {
      "children": [
        5
      ],
      "name": "MorphMainGroup"
    },
    {
      "mesh": 0,
      "name": "WindowsPlane"
    }
  ],
  "scene": 0,
  "scenes": [
    {
      "name": "Sketchfab_Scene",
      "nodes": [
        0
      ]
    }
  ]
}
