<?xml version="1.0" encoding="UTF-8"?><svg id="Layer_2" xmlns="http://www.w3.org/2000/svg" xmlns:xlink="http://www.w3.org/1999/xlink" viewBox="0 0 729.16 194.06"><defs><style>.cls-1{fill:none;}.cls-2{clip-path:url(#clippath);}.cls-3,.cls-4{fill:#f49e1d;}.cls-5,.cls-6,.cls-7{fill:#fff;}.cls-8,.cls-9{fill:#e46528;}.cls-10{fill:#919191;}.cls-11,.cls-12{fill:#0f3248;}.cls-13{letter-spacing:.02em;}.cls-9{opacity:.2;}.cls-14{letter-spacing:.03em;}.cls-15{letter-spacing:.02em;}.cls-16,.cls-4{opacity:.5;}.cls-12{font-family:Mic32NewRounded-Light, 'Mic32NewRounded Light';font-size:51.86px;}.cls-6{opacity:.84;}.cls-7{opacity:.72;}</style><clipPath id="clippath"><path class="cls-1" d="M176.6,85.75c1.04,5.45,1.6,11.08,1.6,16.84,0,49.21-39.89,89.1-89.1,89.1-5.81,0-11.48-.56-16.98-1.62,15.59,0,50.06-19.04,75.35-49.72,15.86-19.24,22.99-40.21,29.13-54.59Zm-4.41-15.38c-12.91-33.29-45.25-56.89-83.09-56.89C39.89,13.49,0,53.38,0,102.59c0,41.03,27.74,75.58,65.48,85.93l106.71-118.15Z"/></clipPath></defs><g id="color_on_white"><g><g class="cls-2"><circle class="cls-8" cx="89.1" cy="102.59" r="89.11"/><path class="cls-3" d="M150.56,34.21c2.16,1.99,1.52,3.62-1.42,3.62h-17.14c-2.94,0-7.22-1.51-9.51-3.36l-1.14-.92c-2.29-1.85-6.57-3.36-9.51-3.36H39.5c-2.94,0-3.64-1.7-1.57-3.78l14.04-14.04c2.08-2.08,6.19-3.78,9.13-3.78h56.34c2.94,0,7.11,1.63,9.28,3.62l23.84,21.99Z"/><g class="cls-16"><path class="cls-3" d="M188.71,149.13c0,2.94-2.41,5.35-5.35,5.35h-46.7c-2.94,0-6.64-1.41-8.21-3.13-1.58-1.72-5.27-3.13-8.21-3.13h-18.01c-2.94,0-6.74,1.41-8.43,3.13-1.7,1.72-5.49,3.13-8.43,3.13H7.58c-2.94,0-5.35-2.41-5.35-5.35v-7.44c0-2.94,2.41-5.35,5.35-5.35H82.74c2.94,0,5.35-2.41,5.35-5.35v-4.34c0-2.94,2.41-5.35,5.35-5.35h89.93c2.94,0,5.35,2.41,5.35,5.35v22.48Z"/></g><path class="cls-3" d="M-26.77,107.5c0-2.94,2.41-5.35,5.35-5.35H11.02c2.94,0,7.03,1.72,9.08,3.83l2.98,3.06c2.05,2.11,6.14,3.83,9.08,3.83h44.34c2.94,0,6.92-1.82,8.85-4.03l2.3-2.65c1.93-2.22,5.91-4.03,8.85-4.03h96.71c2.94,0,5.35,2.41,5.35,5.35v15.61c0,2.94-2.41,5.35-5.35,5.35H98.06c-2.94,0-7.06,1.69-9.16,3.75l-4.61,4.52c-2.1,2.06-6.22,3.75-9.16,3.75H-16.91c-2.94,0-5.35-2.41-5.35-5.35v-1.33c0-2.94-1.01-5.35-2.25-5.35s-2.25-2.41-2.25-5.35v-15.61Z"/><circle class="cls-9" cx="89.1" cy="103.61" r="89.1"/><path class="cls-3" d="M-13.42,107.82c1.24,2.85,4.8,5.19,7.91,5.19H9.48c3.11,0,6.91,2.22,8.43,4.93l.64,1.13c1.53,2.71,5.32,4.93,8.43,4.93h43.8c3.11,0,7.08-2.11,8.82-4.69l1.08-1.61c1.74-2.58,5.71-4.69,8.82-4.69h94.21c3.11,0,5.66-2.54,5.66-5.66v-.35c0-3.11-2.54-5.66-5.66-5.66H80.34c-3.11,0-7.13,2.08-8.92,4.61l-.87,1.23c-1.8,2.54-5.81,4.61-8.92,4.61h-20.66c-3.11,0-7.22-2.01-9.13-4.46l-8.2-10.51c-1.91-2.45-6.02-4.46-9.13-4.46H-14.48c-3.11,0-4.64,2.33-3.4,5.19l4.45,10.25Z"/><g class="cls-16"><path class="cls-3" d="M170.57,168.6c1.06-2.74-.48-4.99-3.42-4.99h-31.01c-2.94,0-6.75-1.72-8.46-3.81-1.72-2.1-5.52-3.81-8.46-3.81h-15.91c-2.94,0-6.71,1.72-8.38,3.81-1.67,2.1-5.44,3.81-8.38,3.81H13.57c-2.94,0-3.89,1.92-2.11,4.26l5.74,7.55c1.78,2.34,5.64,4.26,8.58,4.26h44c2.94,0,6.96,1.05,8.94,2.34,1.98,1.29,6,2.33,8.94,2.31l71.64-.4c2.94-.02,6.21-2.27,7.28-5.02l3.99-10.31Z"/></g><g class="cls-16"><path class="cls-3" d="M190.36,74.08c1.9,2.89,4.18,5.25,5.06,5.25s-.2,2.18-2.41,4.84l-3.88,4.68c-2.2,2.66-6.84,4.84-10.29,4.84H93.56c-3.46,0-7.57-2.11-9.14-4.69-1.57-2.58-5.69-4.69-9.14-4.69H-12.05c-3.46,0-6.29-2.83-6.29-6.29v-1.48c0-3.46,2.83-6.29,6.29-6.29H55.35c3.46,0,8.29-2,10.74-4.44l2.06-2.06c2.45-2.44,7.28-4.44,10.74-4.44h31.78c3.46,0,6.29,2.81,6.29,6.25s2.83,6.25,6.29,6.25h14.95c3.46,0,6.29-2.81,6.29-6.25s2.83-6.25,6.29-6.25h23.58c3.46,0,7.84,2.36,9.75,5.25l6.27,9.5Z"/></g><path class="cls-3" d="M180.63,59.34h1.38c.76,0-.48,2.13-2.75,4.74l-2.62,3.01c-2.27,2.61-6.96,4.74-10.41,4.74h-52.47c-3.46,0-8.21-2.08-10.56-4.61l-3.03-3.27c-2.35-2.54-7.1-4.61-10.56-4.61h-10.72c-3.46,0-8.29,2-10.74,4.44l-2.06,2.06c-2.45,2.44-7.28,4.44-10.74,4.44H-3.76c-3.46,0-4.83-2.43-3.05-5.39L1.68,50.73c1.78-2.96,6.06-5.39,9.52-5.39h23.28c3.46,0,7.8-1.51,9.65-3.36,1.85-1.85,6.19-3.36,9.65-3.36h55.42c3.46,0,8.29,2,10.73,4.44l1.77,1.77c2.44,2.44,7.27,4.44,10.73,4.44h40.36"/><path class="cls-10" d="M154.6,178.98c.57,0,.57-.89,0-.89s-.57,.89,0,.89h0Z"/><path class="cls-3" d="M15.4,182.18c0-2.94,2.41-5.35,5.35-5.35h54.34c2.94,0,7.3,1.4,9.68,3.11,2.38,1.71,6.74,3.11,9.68,3.11h35.93c2.94,0,5.35,2.17,5.35,4.83s-2.41,4.83-5.35,4.83H20.75c-2.94,0-5.35-2.41-5.35-5.35v-5.17Z"/><circle class="cls-4" cx="89.1" cy="102.59" r="89.11"/></g><g><path class="cls-5" d="M29.78,74.23v72.76s0,0,0,0c8.3-3.15,13.79-11.11,13.79-19.99v-40.3l50.28,61.28,10.66-8.75L46.31,68.31c-1.74-2.12-4.33-3.37-7.08-3.41h0c-5.2-.07-9.45,4.13-9.45,9.33Z"/><path class="cls-5" d="M77.79,65.15h0s37.14,78.98,37.14,78.98l12.48-5.87-28.15-59.86c-3.89-8.28-12.32-13.48-21.47-13.25Z"/></g><path class="cls-11" d="M171.33,7.35c-21.12-19.12-52.44,4.57-58.35,9.37,2.95,.82,5.84,1.78,8.66,2.89,3.29-1.79,23.11-12.06,33.88-4.87,7.79,5.2,4.33,29.1-20.71,70.51-21.26,35.16-33.49,52.85-63.44,78.47-29.95,25.62-46.58,16.91-50.38,12.64-3.36-3.77-6.44-13.81-3.39-20.6,0,0,0,0,0,0-1.41-1.8-1.53-2.07-2.8-3.98l-1.46-2.27c-6.61,12.73-7.68,33.02,7.81,40.92,15.49,7.9,56.14,6.66,105.6-43.02C180.47,93.45,194.72,28.53,171.33,7.35Z"/><circle class="cls-5" cx="139.34" cy="110.7" r="6.87"/><circle class="cls-7" cx="159.34" cy="73.91" r="4.83"/><circle class="cls-6" cx="150.73" cy="91.61" r="6.04"/><g><path class="cls-11" d="M222.28,78.72c0-14.15,9.4-21.62,20.92-21.62s20.71,7.48,20.71,21.62v20.41c0,6.47-5.25,11.72-11.72,11.72h-.1v-31.62c0-7.88-3.54-11.92-8.89-11.92s-9.19,4.04-9.19,11.92v19.9c0,6.47-5.25,11.72-11.72,11.72h0v-32.13Z"/><path class="cls-11" d="M271.18,58.41h3.45c5.15,0,9.7,3.37,11.21,8.3l5.25,17.17c1.11,3.84,2.42,9.4,3.44,14.45,1.21-5.15,2.42-10.61,3.54-14.45l5.25-17.17c1.51-4.93,6.06-8.3,11.21-8.3h3.45l-14.64,46.04c-1.21,3.81-4.75,6.4-8.75,6.4h0c-4,0-7.54-2.59-8.75-6.4l-14.64-46.04Z"/><path class="cls-11" d="M325.74,43.66c0-3.94,3.33-6.77,7.07-6.77s7.07,2.83,7.07,6.77c0,3.74-3.23,6.87-7.07,6.87s-7.07-3.13-7.07-6.87Zm13.03,14.75h0v40.62c0,6.53-5.29,11.82-11.82,11.82h0v-40.62c0-6.53,5.29-11.82,11.82-11.82Z"/><path class="cls-11" d="M349.58,109.24c1.22-5.08,6.11-8.29,11.29-7.6,1.55,.21,3.11,.32,4.68,.32,4.55,0,7.78-2.32,7.78-5.46,0-9.7-22.43-6.06-22.43-24.15,0-8.79,7.07-15.26,18.49-15.26,4.75,0,9.19,.81,13.94,2.43l-.08,.28c-1.32,4.99-6.11,8.13-11.25,7.62-.85-.08-1.72-.13-2.62-.13-4.65,0-6.37,2.22-6.37,5.05,0,9.09,22.33,5.25,22.33,23.95,0,7.98-6.37,15.86-19.8,15.86-5.46,0-10.61-1.01-15.96-2.93h0Z"/><path class="cls-11" d="M395.25,43.66c0-3.94,3.33-6.77,7.07-6.77s7.07,2.83,7.07,6.77c0,3.74-3.23,6.87-7.07,6.87s-7.07-3.13-7.07-6.87Zm13.03,14.75h0v40.62c0,6.53-5.29,11.82-11.82,11.82h0v-40.62c0-6.53,5.29-11.82,11.82-11.82Z"/><path class="cls-11" d="M421.01,80.04c0-14.85,9.19-22.94,21.72-22.94s21.82,8.08,21.82,23.04v8.99c0,14.85-9.19,23.04-21.82,23.04s-21.72-8.18-21.72-23.04v-9.09Zm21.72,21.93c6.67,0,10.1-4.34,10.1-13.34v-7.98c0-8.99-3.43-13.34-10.1-13.34s-10,4.34-10,13.34v7.98c0,8.99,3.44,13.34,10,13.34Z"/><path class="cls-11" d="M476.78,78.72c0-14.15,9.4-21.62,20.92-21.62s20.71,7.48,20.71,21.62v20.41c0,6.47-5.25,11.72-11.72,11.72h-.1v-31.62c0-7.88-3.54-11.92-8.89-11.92s-9.19,4.04-9.19,11.92v19.9c0,6.47-5.25,11.72-11.72,11.72h0v-32.13Z"/><path class="cls-11" d="M549.22,78.52h8.29v-1.92c0-5.96-2.93-9.3-8.29-9.3-4.63,0-9.46,1.1-14.08,2.51-.03,.01-.07,0-.08-.04h0c-1.48-5.62,2.25-11.26,7.98-12.16,2.05-.32,4.11-.51,6.18-.51,12.12,0,20.21,7.58,20.21,19.5v18.09c0,10-9.19,17.48-20.01,17.48s-20.01-7.58-20.01-17.48c0-10.71,8.08-16.17,19.8-16.17Zm.2,23.44c5.05,0,8.08-3.64,8.08-7.27v-7.48h-8.39c-5.66,0-7.68,3.44-7.68,7.28s2.63,7.48,7.98,7.48Z"/><path class="cls-11" d="M581.55,77.01c0-12.02,8.99-19.91,20.61-19.91h0c4.55,0,7.92,4.24,6.92,8.68l-.55,2.44c-1.62-.4-4.14-.91-6.26-.91-5.46,0-8.99,3.94-8.99,9.7v22.13c0,6.47-5.25,11.72-11.72,11.72h0v-33.85Z"/><path class="cls-11" d="M617.62,43.66c0-3.94,3.33-6.77,7.07-6.77s7.07,2.83,7.07,6.77c0,3.74-3.23,6.87-7.07,6.87s-7.07-3.13-7.07-6.87Zm13.03,14.75h0v40.62c0,6.53-5.29,11.82-11.82,11.82h0v-40.62c0-6.53,5.29-11.82,11.82-11.82Z"/><path class="cls-11" d="M643.38,78.82c0-14.15,9.3-21.72,20.71-21.72s20.81,8.08,20.81,19.8v.62c0,5.8-4.7,10.5-10.5,10.5h-19.25s-.06,.03-.06,.06v1.86c0,8.18,3.94,12.02,10.71,12.02,4.93,0,9.56-1,14.18-2.41,.03-.01,.07,0,.08,.04h0c1.42,5.91-2.72,11.68-8.76,12.31-1.71,.18-3.52,.26-5.5,.26-13.34,0-22.43-7.68-22.43-22.23v-11.11Zm29.71-1.96h0c0-5.86-5.3-10.56-11.03-9.35-4.15,.88-6.95,4.51-6.95,10.1v1.65s.03,.06,.06,.06h15.46c1.36,0,2.47-1.1,2.47-2.47Z"/><path class="cls-11" d="M693.39,109.24c1.22-5.08,6.11-8.29,11.29-7.6,1.55,.21,3.11,.32,4.68,.32,4.55,0,7.78-2.32,7.78-5.46,0-9.7-22.43-6.06-22.43-24.15,0-8.79,7.07-15.26,18.49-15.26,4.75,0,9.19,.81,13.94,2.43l-.08,.28c-1.32,4.99-6.11,8.13-11.25,7.62-.85-.08-1.72-.13-2.62-.13-4.65,0-6.37,2.22-6.37,5.05,0,9.09,22.33,5.25,22.33,23.95,0,7.98-6.37,15.86-19.8,15.86-5.46,0-10.61-1.01-15.96-2.93h0Z"/></g><g><path class="cls-8" d="M232.79,127.57c1.84,0,3.05,0,4.9-.03,3.74,0,3.19,1.42,2.62,3.39-.78,2.74-2,5.87-2.93,8.54-.38,1.09-.16,1.53,.99,1.54h6.93c2.66,0,3.71,1.24,2.41,3.55-2.28,4.06-4.62,8.07-6.95,12.1-2.19,3.77-4.36,7.53-6.52,11.28-.61,1.05-1.25,2.03-2.69,2.02-1.87,0-2.32-1.57-1.82-3.37,.62-2.24,1.09-4.54,1.61-6.8,.45-1.93,.87-3.88,1.43-5.78,.5-1.71,.24-2.12-1.56-2.16-2.38-.04-4.99,.15-7.36-.18-1.35-.19-2.26-.88-2.19-2.19,.16-2.32,1.64-11.77,1.92-13.75,.34-2.22,.3-4.51,1.01-6.67,.35-1.07,.86-1.52,2.19-1.5,2,.03,4.01,.01,6.01,.01h0Z"/><text class="cls-12" transform="translate(261.68 164.06)"><tspan class="cls-15" x="0" y="0">b</tspan><tspan class="cls-14" x="30.7" y="0">y </tspan><tspan class="cls-13" x="69.24" y="0">n</tspan><tspan class="cls-14" x="98.9" y="0">visia</tspan></text></g></g></g></svg>