{
  "accessors": [
    {
      "bufferView": 2,
      "componentType": 5126,
      "count": 28733,
      "max": [
        22.628114700317383,
        3.72116756439209,
        12.427114486694336
      ],
      "min": [
        -14.817839622497559,
        -5.0389204025268555,
        -14.314138412475586
      ],
      "type": "VEC3"
    },
    {
      "bufferView": 2,
      "byteOffset": 344796,
      "componentType": 5126,
      "count": 28733,
      "max": [
        1.0,
        1.0,
        1.0
      ],
      "min": [
        -1.0,
        -1.0,
        -1.0
      ],
      "type": "VEC3"
    },
    {
      "bufferView": 1,
      "componentType": 5126,
      "count": 28733,
      "max": [
        0.9941743612289429,
        0.998548686504364
      ],
      "min": [
        0.028275862336158752,
        0.001307999948039651
      ],
      "type": "VEC2"
    },
    {
      "bufferView": 0,
      "componentType": 5125,
      "count": 37773,
      "type": "SCALAR"
    },
    {
      "bufferView": 2,
      "byteOffset": 689592,
      "componentType": 5126,
      "count": 144,
      "max": [
        16.57292938232422,
        -0.9641375541687012,
        5.83581018447876
      ],
      "min": [
        -5.557621002197266,
        -4.0068254470825195,
        -6.594376564025879
      ],
      "type": "VEC3"
    },
    {
      "bufferView": 2,
      "byteOffset": 691320,
      "componentType": 5126,
      "count": 144,
      "max": [
        1.0,
        1.0,
        1.0
      ],
      "min": [
        -1.0,
        -2.4483811102982145e-06,
        -1.0
      ],
      "type": "VEC3"
    },
    {
      "bufferView": 1,
      "byteOffset": 229864,
      "componentType": 5126,
      "count": 144,
      "max": [
        7.1562323570251465,
        1.5455392599105835
      ],
      "min": [
        -6.177192211151123,
        0.3233649730682373
      ],
      "type": "VEC2"
    },
    {
      "bufferView": 0,
      "byteOffset": 151092,
      "componentType": 5125,
      "count": 252,
      "type": "SCALAR"
    },
    {
      "bufferView": 2,
      "byteOffset": 693048,
      "componentType": 5126,
      "count": 412,
      "max": [
        16.60896873474121,
        0.9957027435302734,
        5.83581018447876
      ],
      "min": [
        -5.557621002197266,
        -3.8254263401031494,
        -6.594376564025879
      ],
      "type": "VEC3"
    },
    {
      "bufferView": 2,
      "byteOffset": 697992,
      "componentType": 5126,
      "count": 412,
      "max": [
        1.0,
        1.0,
        1.0
      ],
      "min": [
        -1.0,
        -1.0,
        -1.0
      ],
      "type": "VEC3"
    },
    {
      "bufferView": 1,
      "byteOffset": 231016,
      "componentType": 5126,
      "count": 412,
      "max": [
        3.3535802364349365,
        1.4805915355682373
      ],
      "min": [
        -1.4877102375030518,
        0.005917876958847046
      ],
      "type": "VEC2"
    },
    {
      "bufferView": 0,
      "byteOffset": 152100,
      "componentType": 5125,
      "count": 774,
      "type": "SCALAR"
    },
    {
      "bufferView": 2,
      "byteOffset": 702936,
      "componentType": 5126,
      "count": 1773,
      "max": [
        16.607799530029297,
        1.720125675201416,
        6.037888050079346
      ],
      "min": [
        -14.6370210647583,
        -3.901309013366699,
        -5.87250280380249
      ],
      "type": "VEC3"
    },
    {
      "bufferView": 2,
      "byteOffset": 724212,
      "componentType": 5126,
      "count": 1773,
      "max": [
        1.0,
        1.0,
        1.0
      ],
      "min": [
        -1.0,
        -1.0,
        -1.0
      ],
      "type": "VEC3"
    },
    {
      "bufferView": 1,
      "byteOffset": 234312,
      "componentType": 5126,
      "count": 1773,
      "max": [
        1.6835103034973145,
        1.0
      ],
      "min": [
        -0.6835103034973145,
        0.0
      ],
      "type": "VEC2"
    },
    {
      "bufferView": 0,
      "byteOffset": 155196,
      "componentType": 5125,
      "count": 3159,
      "type": "SCALAR"
    },
    {
      "bufferView": 2,
      "byteOffset": 745488,
      "componentType": 5126,
      "count": 168,
      "max": [
        17.847881317138672,
        0.9957032203674316,
        7.138087749481201
      ],
      "min": [
        -6.726572036743164,
        -0.9954180717468262,
        -7.7999114990234375
      ],
      "type": "VEC3"
    },
    {
      "bufferView": 2,
      "byteOffset": 747504,
      "componentType": 5126,
      "count": 168,
      "max": [
        0.9359134435653687,
        1.0,
        0.9999939799308777
      ],
      "min": [
        -0.9999939203262329,
        -5.480331992657739e-07,
        -0.9999939799308777
      ],
      "type": "VEC3"
    },
    {
      "bufferView": 1,
      "byteOffset": 248496,
      "componentType": 5126,
      "count": 168,
      "max": [
        20.290315628051758,
        7.359175682067871
      ],
      "min": [
        -11.828779220581055,
        -4.499851226806641
      ],
      "type": "VEC2"
    },
    {
      "bufferView": 0,
      "byteOffset": 167832,
      "componentType": 5125,
      "count": 168,
      "type": "SCALAR"
    },
    {
      "bufferView": 2,
      "byteOffset": 749520,
      "componentType": 5126,
      "count": 998,
      "max": [
        14.540861129760742,
        1.662092685699463,
        1.790968894958496
      ],
      "min": [
        -2.0218887329101563,
        0.5523738861083984,
        -0.09068906307220459
      ],
      "type": "VEC3"
    },
    {
      "bufferView": 2,
      "byteOffset": 761496,
      "componentType": 5126,
      "count": 998,
      "max": [
        1.0,
        1.0,
        1.0
      ],
      "min": [
        -1.0,
        -1.0,
        -1.0
      ],
      "type": "VEC3"
    },
    {
      "bufferView": 1,
      "byteOffset": 249840,
      "componentType": 5126,
      "count": 998,
      "max": [
        0.691586971282959,
        0.7415480017662048
      ],
      "min": [
        -0.0074720000848174095,
        0.07381699979305267
      ],
      "type": "VEC2"
    },
    {
      "bufferView": 0,
      "byteOffset": 168504,
      "componentType": 5125,
      "count": 1536,
      "type": "SCALAR"
    },
    {
      "bufferView": 2,
      "byteOffset": 773472,
      "componentType": 5126,
      "count": 24,
      "max": [
        -12.368563652038574,
        -2.7274065017700195,
        0.3070261478424072
      ],
      "min": [
        -14.581254005432129,
        -4.615091800689697,
        -0.3922536373138428
      ],
      "type": "VEC3"
    },
    {
      "bufferView": 2,
      "byteOffset": 773760,
      "componentType": 5126,
      "count": 24,
      "max": [
        1.0,
        1.0,
        1.0
      ],
      "min": [
        -1.0,
        -1.0,
        -1.0
      ],
      "type": "VEC3"
    },
    {
      "bufferView": 1,
      "byteOffset": 257824,
      "componentType": 5126,
      "count": 24,
      "max": [
        1.6406869888305664,
        3.642772912979126
      ],
      "min": [
        -0.058010000735521317,
        1.9633790254592896
      ],
      "type": "VEC2"
    },
    {
      "bufferView": 0,
      "byteOffset": 174648,
      "componentType": 5125,
      "count": 36,
      "type": "SCALAR"
    },
    {
      "bufferView": 2,
      "byteOffset": 774048,
      "componentType": 5126,
      "count": 72,
      "max": [
        22.43520736694336,
        -3.9013075828552246,
        12.262154579162598
      ],
      "min": [
        -14.575212478637695,
        -3.901309013366699,
        -14.14918041229248
      ],
      "type": "VEC3"
    },
    {
      "bufferView": 2,
      "byteOffset": 774912,
      "componentType": 5126,
      "count": 72,
      "max": [
        -3.0016277463573715e-08,
        1.0,
        -4.1955300317903996e-14
      ],
      "min": [
        -3.001628812171475e-08,
        1.0,
        -4.195531725856294e-14
      ],
      "type": "VEC3"
    },
    {
      "bufferView": 1,
      "byteOffset": 258016,
      "componentType": 5126,
      "count": 72,
      "max": [
        8.149574279785156,
        1.729081630706787
      ],
      "min": [
        -7.605576992034912,
        -0.9318938851356506
      ],
      "type": "VEC2"
    },
    {
      "bufferView": 0,
      "byteOffset": 174792,
      "componentType": 5125,
      "count": 204,
      "type": "SCALAR"
    }
  ],
  "asset": {
    "extras": {
      "author": "novusod (https://sketchfab.com/novusod)",
      "license": "CC-BY-4.0 (http://creativecommons.org/licenses/by/4.0/)",
      "source": "https://sketchfab.com/3d-models/mcdonalds-a72810b3252e47ee9072d8fa34599379",
      "title": "McDonalds"
    },
    "generator": "Sketchfab-14.10.0",
    "version": "2.0"
  },
  "bufferViews": [
    {
      "buffer": 0,
      "byteLength": 175608,
      "name": "floatBufferViews",
      "target": 34963
    },
    {
      "buffer": 0,
      "byteLength": 258592,
      "byteOffset": 175608,
      "byteStride": 8,
      "name": "floatBufferViews",
      "target": 34962
    },
    {
      "buffer": 0,
      "byteLength": 775776,
      "byteOffset": 434200,
      "byteStride": 12,
      "name": "floatBufferViews",
      "target": 34962
    }
  ],
  "buffers": [
    {
      "byteLength": 1209976,
      "uri": "scene.bin"
    }
  ],
  "images": [
    {
      "uri": "textures/Material.266_baseColor.png"
    },
    {
      "uri": "textures/Brick_Tan_baseColor.jpeg"
    },
    {
      "uri": "textures/OuterBrick_baseColor.png"
    },
    {
      "uri": "textures/Felt_baseColor.png"
    },
    {
      "uri": "textures/Roofing_baseColor.jpeg"
    },
    {
      "uri": "textures/Brickee_baseColor.png"
    },
    {
      "uri": "textures/Brickee2_baseColor.png"
    },
    {
      "uri": "textures/Stones_baseColor.png"
    }
  ],
  "materials": [
    {
      "doubleSided": true,
      "name": "Material.266",
      "pbrMetallicRoughness": {
        "baseColorTexture": {
          "index": 0
        },
        "metallicFactor": 0.0,
        "roughnessFactor": 0.4
      }
    },
    {
      "doubleSided": true,
      "name": "Brick_Tan",
      "pbrMetallicRoughness": {
        "baseColorTexture": {
          "index": 1
        },
        "metallicFactor": 0.0,
        "roughnessFactor": 0.5
      }
    },
    {
      "doubleSided": true,
      "name": "OuterBrick",
      "pbrMetallicRoughness": {
        "baseColorTexture": {
          "index": 2
        },
        "metallicFactor": 0.0,
        "roughnessFactor": 0.5
      }
    },
    {
      "doubleSided": true,
      "name": "Felt",
      "pbrMetallicRoughness": {
        "baseColorTexture": {
          "index": 3
        },
        "metallicFactor": 0.0,
        "roughnessFactor": 0.5
      }
    },
    {
      "doubleSided": true,
      "name": "Roofing",
      "pbrMetallicRoughness": {
        "baseColorTexture": {
          "index": 4
        },
        "metallicFactor": 0.0,
        "roughnessFactor": 0.5
      }
    },
    {
      "doubleSided": true,
      "name": "Brickee",
      "pbrMetallicRoughness": {
        "baseColorTexture": {
          "index": 5
        },
        "metallicFactor": 0.0,
        "roughnessFactor": 0.5
      }
    },
    {
      "doubleSided": true,
      "name": "Brickee2",
      "pbrMetallicRoughness": {
        "baseColorTexture": {
          "index": 6
        },
        "metallicFactor": 0.0,
        "roughnessFactor": 0.5
      }
    },
    {
      "doubleSided": true,
      "name": "Stones",
      "pbrMetallicRoughness": {
        "baseColorTexture": {
          "index": 7
        },
        "metallicFactor": 0.0,
        "roughnessFactor": 0.5
      }
    }
  ],
  "meshes": [
    {
      "name": "Object_0",
      "primitives": [
        {
          "attributes": {
            "NORMAL": 1,
            "POSITION": 0,
            "TEXCOORD_0": 2
          },
          "indices": 3,
          "material": 0,
          "mode": 4
        }
      ]
    },
    {
      "name": "Object_1",
      "primitives": [
        {
          "attributes": {
            "NORMAL": 5,
            "POSITION": 4,
            "TEXCOORD_0": 6
          },
          "indices": 7,
          "material": 1,
          "mode": 4
        }
      ]
    },
    {
      "name": "Object_2",
      "primitives": [
        {
          "attributes": {
            "NORMAL": 9,
            "POSITION": 8,
            "TEXCOORD_0": 10
          },
          "indices": 11,
          "material": 2,
          "mode": 4
        }
      ]
    },
    {
      "name": "Object_3",
      "primitives": [
        {
          "attributes": {
            "NORMAL": 13,
            "POSITION": 12,
            "TEXCOORD_0": 14
          },
          "indices": 15,
          "material": 3,
          "mode": 4
        }
      ]
    },
    {
      "name": "Object_4",
      "primitives": [
        {
          "attributes": {
            "NORMAL": 17,
            "POSITION": 16,
            "TEXCOORD_0": 18
          },
          "indices": 19,
          "material": 4,
          "mode": 4
        }
      ]
    },
    {
      "name": "Object_5",
      "primitives": [
        {
          "attributes": {
            "NORMAL": 21,
            "POSITION": 20,
            "TEXCOORD_0": 22
          },
          "indices": 23,
          "material": 5,
          "mode": 4
        }
      ]
    },
    {
      "name": "Object_6",
      "primitives": [
        {
          "attributes": {
            "NORMAL": 25,
            "POSITION": 24,
            "TEXCOORD_0": 26
          },
          "indices": 27,
          "material": 6,
          "mode": 4
        }
      ]
    },
    {
      "name": "Object_7",
      "primitives": [
        {
          "attributes": {
            "NORMAL": 29,
            "POSITION": 28,
            "TEXCOORD_0": 30
          },
          "indices": 31,
          "material": 7,
          "mode": 4
        }
      ]
    }
  ],
  "nodes": [
    {
      "children": [
        1
      ],
      "matrix": [
        1.0,
        0.0,
        0.0,
        0.0,
        0.0,
        2.220446049250313e-16,
        -1.0,
        0.0,
        0.0,
        1.0,
        2.220446049250313e-16,
        0.0,
        0.0,
        0.0,
        0.0,
        1.0
      ],
      "name": "Sketchfab_model"
    },
    {
      "children": [
        2
      ],
      "name": "root"
    },
    {
      "children": [
        3
      ],
      "matrix": [
        1.0,
        0.0,
        0.0,
        0.0,
        0.0,
        2.220446049250313e-16,
        1.0,
        0.0,
        0.0,
        -1.0,
        2.220446049250313e-16,
        0.0,
        0.0,
        0.0,
        0.0,
        1.0
      ],
      "name": "GLTF_SceneRootNode"
    },
    {
      "children": [
        4,
        5,
        6,
        7,
        8,
        9,
        10,
        11
      ],
      "matrix": [
        -0.9999999999999467,
        0.0,
        3.258413698858844e-07,
        0.0,
        0.0,
        1.0,
        0.0,
        0.0,
        -3.258413698858844e-07,
        0.0,
        -0.9999999999999467,
        0.0,
        -12.420156478881836,
        4.254681587219238,
        -1.2589346170425415,
        1.0
      ],
      "name": "Base_0"
    },
    {
      "mesh": 0,
      "name": "Object_4"
    },
    {
      "mesh": 1,
      "name": "Object_5"
    },
    {
      "mesh": 2,
      "name": "Object_6"
    },
    {
      "mesh": 3,
      "name": "Object_7"
    },
    {
      "mesh": 4,
      "name": "Object_8"
    },
    {
      "mesh": 5,
      "name": "Object_9"
    },
    {
      "mesh": 6,
      "name": "Object_10"
    },
    {
      "mesh": 7,
      "name": "Object_11"
    }
  ],
  "samplers": [
    {
      "magFilter": 9729,
      "minFilter": 9987,
      "wrapS": 10497,
      "wrapT": 10497
    }
  ],
  "scene": 0,
  "scenes": [
    {
      "name": "Sketchfab_Scene",
      "nodes": [
        0
      ]
    }
  ],
  "textures": [
    {
      "sampler": 0,
      "source": 0
    },
    {
      "sampler": 0,
      "source": 1
    },
    {
      "sampler": 0,
      "source": 2
    },
    {
      "sampler": 0,
      "source": 3
    },
    {
      "sampler": 0,
      "source": 4
    },
    {
      "sampler": 0,
      "source": 5
    },
    {
      "sampler": 0,
      "source": 6
    },
    {
      "sampler": 0,
      "source": 7
    }
  ]
}
